# WaveFront *.obj file (generated by Autodesk ATF)

mtllib casing_visual.mtl

g casing

v -7.050000 -4.033266 0.000000
v -7.050000 -4.033266 0.200000
v -7.050000 4.033266 0.200000
v -7.050000 4.033266 0.000000
v -7.050000 14.650000 0.000000
v -7.050000 14.650000 4.800000
v -7.050000 -14.650000 4.800000
v -7.050000 -14.650000 0.000000
v 7.050000 4.033266 0.000000
v 7.050000 4.033266 0.200000
v 7.050000 -4.033266 0.200000
v 7.050000 -4.033266 0.000000
v 7.050000 -14.650000 0.000000
v 7.050000 -14.650000 4.800000
v 7.050000 14.650000 4.800000
v 7.050000 14.650000 0.000000
v -7.250000 -14.850000 0.000000
v 7.250000 -14.850000 0.000000
v 7.250000 -14.850000 5.000000
v -7.250000 -14.850000 5.000000
v -7.250000 14.850000 0.000000
v -7.250000 14.850000 5.000000
v 7.250000 14.850000 0.000000
v 7.250000 14.850000 5.000000
vt -18.883266 0.000000 0.000000
vt -18.883266 0.200000 0.000000
vt -29.500000 0.000000 0.000000
vt -29.500000 4.800000 0.000000
vt -10.816734 0.200000 0.000000
vt -0.200000 4.800000 0.000000
vt -0.200000 0.000000 0.000000
vt -10.816734 0.000000 0.000000
vt -18.883266 0.000000 0.000000
vt -18.883266 0.200000 0.000000
vt -29.500000 0.000000 0.000000
vt -29.500000 4.800000 0.000000
vt -10.816734 0.200000 0.000000
vt -0.200000 4.800000 0.000000
vt -0.200000 0.000000 0.000000
vt -10.816734 0.000000 0.000000
vt -14.300000 0.000000 0.000000
vt -0.200000 0.000000 0.000000
vt -14.300000 4.800000 0.000000
vt -0.200000 4.800000 0.000000
vt -14.300000 0.000000 0.000000
vt -0.200000 0.000000 0.000000
vt -14.300000 4.800000 0.000000
vt -0.200000 4.800000 0.000000
vt -7.050000 -14.650000 0.000000
vt 7.050000 -14.650000 0.000000
vt -7.050000 14.650000 0.000000
vt 7.050000 14.650000 0.000000
vt 0.000000 0.000000 0.000000
vt 14.500000 0.000000 0.000000
vt 0.000000 5.000000 0.000000
vt 14.500000 5.000000 0.000000
vt 0.000000 0.000000 0.000000
vt 29.700000 0.000000 0.000000
vt 0.000000 5.000000 0.000000
vt 29.700000 5.000000 0.000000
vt 0.000000 0.000000 0.000000
vt 14.500000 0.000000 0.000000
vt 0.000000 5.000000 0.000000
vt 14.500000 5.000000 0.000000
vt 0.000000 0.000000 0.000000
vt 29.700000 0.000000 0.000000
vt 0.000000 5.000000 0.000000
vt 29.700000 5.000000 0.000000
vt 7.250000 14.850000 0.000000
vt -7.250000 14.850000 0.000000
vt 7.250000 -14.850000 0.000000
vt -7.250000 -14.850000 0.000000
vt 0.002304 0.000000 0.000000
vt 14.102304 0.000000 0.000000
vt 0.002304 0.200000 0.000000
vt 14.102304 0.200000 0.000000
vt -7.050000 4.033266 0.000000
vt 7.050000 -4.033266 0.000000
vt 7.050000 4.033266 0.000000
vt 7.250000 -14.850000 0.000000
vt 7.250000 14.850000 0.000000
vt -7.050000 14.650000 0.000000
vt -7.250000 14.850000 0.000000
vt -7.250000 -14.850000 0.000000
vt -7.050000 -4.033266 0.000000
vt -7.050000 -14.650000 0.000000
vt 7.050000 -14.650000 0.000000
vt 7.050000 14.650000 0.000000
vt 14.102304 0.200000 0.000000
vt 0.002304 0.200000 0.000000
vt 14.102304 0.000000 0.000000
vt 0.002304 0.000000 0.000000
vt -7.050000 -4.033266 0.000000
vt 7.050000 -4.033266 0.000000
vt -7.050000 4.033266 0.000000
vt 7.050000 4.033266 0.000000
vn 1.000000 -0.000000 -0.000000
vn 1.000000 -0.000000 -0.000000
vn 1.000000 -0.000000 -0.000000
vn 1.000000 -0.000000 -0.000000
vn 1.000000 -0.000000 -0.000000
vn 1.000000 -0.000000 -0.000000
vn 1.000000 -0.000000 -0.000000
vn 1.000000 -0.000000 -0.000000
vn -1.000000 -0.000000 -0.000000
vn -1.000000 -0.000000 -0.000000
vn -1.000000 -0.000000 -0.000000
vn -1.000000 -0.000000 -0.000000
vn -1.000000 -0.000000 -0.000000
vn -1.000000 -0.000000 -0.000000
vn -1.000000 -0.000000 -0.000000
vn -1.000000 -0.000000 -0.000000
vn -0.000000 1.000000 -0.000000
vn -0.000000 1.000000 -0.000000
vn -0.000000 1.000000 -0.000000
vn -0.000000 1.000000 -0.000000
vn -0.000000 -1.000000 0.000000
vn -0.000000 -1.000000 0.000000
vn -0.000000 -1.000000 0.000000
vn -0.000000 -1.000000 0.000000
vn -0.000000 -0.000000 -1.000000
vn -0.000000 -0.000000 -1.000000
vn -0.000000 -0.000000 -1.000000
vn -0.000000 -0.000000 -1.000000
vn 0.000000 -1.000000 0.000000
vn 0.000000 -1.000000 0.000000
vn 0.000000 -1.000000 0.000000
vn 0.000000 -1.000000 0.000000
vn -1.000000 0.000000 0.000000
vn -1.000000 0.000000 0.000000
vn -1.000000 0.000000 0.000000
vn -1.000000 0.000000 0.000000
vn 0.000000 1.000000 -0.000000
vn 0.000000 1.000000 -0.000000
vn 0.000000 1.000000 -0.000000
vn 0.000000 1.000000 -0.000000
vn 1.000000 0.000000 0.000000
vn 1.000000 0.000000 0.000000
vn 1.000000 0.000000 0.000000
vn 1.000000 0.000000 0.000000
vn 0.000000 0.000000 1.000000
vn 0.000000 0.000000 1.000000
vn 0.000000 0.000000 1.000000
vn 0.000000 0.000000 1.000000
vn 0.000000 -1.000000 0.000000
vn 0.000000 -1.000000 0.000000
vn 0.000000 -1.000000 0.000000
vn 0.000000 -1.000000 0.000000
vn -0.000000 -0.000000 -1.000000
vn -0.000000 -0.000000 -1.000000
vn -0.000000 -0.000000 -1.000000
vn -0.000000 -0.000000 -1.000000
vn -0.000000 -0.000000 -1.000000
vn -0.000000 -0.000000 -1.000000
vn -0.000000 -0.000000 -1.000000
vn -0.000000 -0.000000 -1.000000
vn -0.000000 -0.000000 -1.000000
vn -0.000000 -0.000000 -1.000000
vn -0.000000 -0.000000 -1.000000
vn -0.000000 -0.000000 -1.000000
vn 0.000000 1.000000 0.000000
vn 0.000000 1.000000 0.000000
vn 0.000000 1.000000 0.000000
vn 0.000000 1.000000 0.000000
vn 0.000000 0.000000 1.000000
vn 0.000000 0.000000 1.000000
vn 0.000000 0.000000 1.000000
vn 0.000000 0.000000 1.000000
usemtl Aluminum_-_Satin
f 1/1/1 2/2/2 8/3/3
f 8/3/3 2/2/2 7/4/4
f 7/4/4 2/2/2 3/5/5
f 7/4/4 3/5/5 6/6/6
f 6/6/6 3/5/5 5/7/7
f 5/7/7 3/5/5 4/8/8
f 9/9/9 10/10/10 16/11/11
f 16/11/11 10/10/10 15/12/12
f 15/12/12 10/10/10 11/13/13
f 15/12/12 11/13/13 14/14/14
f 14/14/14 11/13/13 13/15/15
f 13/15/15 11/13/13 12/16/16
f 13/17/17 8/18/18 14/19/19
f 14/19/19 8/18/18 7/20/20
f 5/21/21 16/22/22 6/23/23
f 6/23/23 16/22/22 15/24/24
f 14/25/25 7/26/26 15/27/27
f 15/27/27 7/26/26 6/28/28
f 17/29/29 18/30/30 20/31/31
f 20/31/31 18/30/30 19/32/32
f 21/33/33 17/34/34 22/35/35
f 22/35/35 17/34/34 20/36/36
f 23/37/37 21/38/38 24/39/39
f 24/39/39 21/38/38 22/40/40
f 18/41/41 23/42/42 19/43/43
f 19/43/43 23/42/42 24/44/44
f 24/45/45 22/46/46 19/47/47
f 19/47/47 22/46/46 20/48/48
f 1/49/49 12/50/50 2/51/51
f 2/51/51 12/50/50 11/52/52
f 9/53/53 1/54/54 4/55/55
f 4/55/55 1/54/54 17/56/56
f 4/55/55 17/56/56 21/57/57
f 16/58/58 23/59/59 9/53/53
f 9/53/53 23/59/59 18/60/60
f 9/53/53 18/60/60 12/61/61
f 12/61/61 18/60/60 13/62/62
f 13/62/62 18/60/60 17/56/56
f 13/62/62 17/56/56 8/63/63
f 8/63/63 17/56/56 1/54/54
f 16/58/58 5/64/64 23/59/59
f 23/59/59 5/64/64 21/57/57
f 21/57/57 5/64/64 4/55/55
f 12/61/61 1/54/54 9/53/53
f 3/65/65 10/66/66 4/67/67
f 4/67/67 10/66/66 9/68/68
f 2/69/69 11/70/70 3/71/71
f 3/71/71 11/70/70 10/72/72
# 24 vertices
# 72 texture params
# 72 normals
# 48 facets

# 1 groups
