# WaveFront *.obj file (generated by Autodesk ATF)

mtllib lidar_body_visual.mtl

g lidar_body

v 3.500000 0.000000 22.100000
v 3.344505 1.031643 22.100000
v 2.891836 1.971620 22.100000
v 2.182214 2.736410 22.100000
v 1.278694 3.258058 22.100000
v 0.261555 3.490213 22.100000
v -0.778823 3.412248 22.100000
v -1.750000 3.031089 22.100000
v -2.565682 2.380605 22.100000
v -3.153391 1.518593 22.100000
v -3.460908 0.521648 22.100000
v -3.460908 -0.521648 22.100000
v -3.153391 -1.518593 22.100000
v -2.565682 -2.380605 22.100000
v -1.750000 -3.031089 22.100000
v -0.778823 -3.412248 22.100000
v 0.261555 -3.490213 22.100000
v 1.278694 -3.258058 22.100000
v 2.182214 -2.736410 22.100000
v 2.891836 -1.971620 22.100000
v 3.344505 -1.031643 22.100000
v 3.500000 0.000000 15.500000
v 3.344505 1.031643 15.500000
v 2.891836 1.971620 15.500000
v 2.182214 2.736410 15.500000
v 1.278694 3.258058 15.500000
v 0.261555 3.490213 15.500000
v -0.778823 3.412248 15.500000
v -1.750000 3.031089 15.500000
v -2.565682 2.380605 15.500000
v -3.153391 1.518593 15.500000
v -3.460908 0.521648 15.500000
v -3.460908 -0.521648 15.500000
v -3.153391 -1.518593 15.500000
v -2.565682 -2.380605 15.500000
v -1.750000 -3.031089 15.500000
v -0.778823 -3.412248 15.500000
v 0.261555 -3.490213 15.500000
v 1.278694 -3.258058 15.500000
v 2.182214 -2.736410 15.500000
v 2.891836 -1.971620 15.500000
v 3.344505 -1.031643 15.500000
vt -3.344505 1.031643 0.000000
vt -3.500000 -0.000000 0.000000
vt 0.778823 -3.412248 0.000000
vt -3.344505 -1.031643 0.000000
vt -2.891836 -1.971620 0.000000
vt -2.182214 -2.736410 0.000000
vt -1.278694 -3.258058 0.000000
vt -0.261555 -3.490213 0.000000
vt 1.750000 -3.031089 0.000000
vt 0.778823 3.412248 0.000000
vt -0.261555 3.490213 0.000000
vt -1.278694 3.258058 0.000000
vt 1.750000 3.031089 0.000000
vt 2.565682 -2.380605 0.000000
vt 2.565682 2.380605 0.000000
vt 3.153391 -1.518593 0.000000
vt 3.153391 1.518593 0.000000
vt 3.460908 -0.521648 0.000000
vt 3.460908 0.521648 0.000000
vt -2.182214 2.736410 0.000000
vt -2.891836 1.971620 0.000000
vt -6.600000 9.948377 0.000000
vt -0.000000 9.948377 0.000000
vt -6.600000 10.995574 0.000000
vt -0.000000 10.995574 0.000000
vt -6.600000 -10.995574 0.000000
vt -0.000000 -10.995574 0.000000
vt -6.600000 -9.948377 0.000000
vt -0.000000 -9.948377 0.000000
vt -6.600000 -8.901179 0.000000
vt -0.000000 -8.901179 0.000000
vt -6.600000 -7.853982 0.000000
vt -0.000000 -7.853982 0.000000
vt -6.600000 -6.806784 0.000000
vt -0.000000 -6.806784 0.000000
vt -6.600000 -5.759587 0.000000
vt -0.000000 -5.759587 0.000000
vt -6.600000 -4.712389 0.000000
vt -0.000000 -4.712389 0.000000
vt -6.600000 -3.665191 0.000000
vt -0.000000 -3.665191 0.000000
vt -6.600000 -2.617994 0.000000
vt -0.000000 -2.617994 0.000000
vt -6.600000 -1.570796 0.000000
vt -0.000000 -1.570796 0.000000
vt -6.600000 -0.523599 0.000000
vt -0.000000 -0.523599 0.000000
vt -6.600000 0.523599 0.000000
vt -0.000000 0.523599 0.000000
vt -6.600000 1.570796 0.000000
vt -0.000000 1.570796 0.000000
vt -6.600000 2.617994 0.000000
vt -0.000000 2.617994 0.000000
vt -6.600000 3.665191 0.000000
vt -0.000000 3.665191 0.000000
vt -6.600000 4.712389 0.000000
vt -0.000000 4.712389 0.000000
vt -6.600000 5.759587 0.000000
vt -0.000000 5.759587 0.000000
vt -6.600000 6.806784 0.000000
vt -0.000000 6.806784 0.000000
vt -6.600000 7.853982 0.000000
vt -0.000000 7.853982 0.000000
vt -6.600000 8.901179 0.000000
vt -0.000000 8.901179 0.000000
vt 3.344505 -1.031643 0.000000
vt 3.500000 -0.000000 0.000000
vt -0.778823 -3.412248 0.000000
vt 3.344505 1.031643 0.000000
vt 2.891836 1.971620 0.000000
vt 2.182214 2.736410 0.000000
vt 1.278694 3.258058 0.000000
vt 0.261555 3.490213 0.000000
vt -0.778823 3.412248 0.000000
vt -1.750000 -3.031089 0.000000
vt -1.750000 3.031089 0.000000
vt -2.565682 -2.380605 0.000000
vt -2.565682 2.380605 0.000000
vt -3.153391 -1.518593 0.000000
vt -3.153391 1.518593 0.000000
vt -3.460908 -0.521648 0.000000
vt -3.460908 0.521648 0.000000
vt 0.261555 -3.490213 0.000000
vt 1.278694 -3.258058 0.000000
vt 2.182214 -2.736410 0.000000
vt 2.891836 -1.971620 0.000000
vn 0.000000 0.000000 1.000000
vn 0.000000 0.000000 1.000000
vn 0.000000 0.000000 1.000000
vn 0.000000 0.000000 1.000000
vn 0.000000 0.000000 1.000000
vn 0.000000 0.000000 1.000000
vn 0.000000 0.000000 1.000000
vn 0.000000 0.000000 1.000000
vn 0.000000 0.000000 1.000000
vn 0.000000 0.000000 1.000000
vn 0.000000 0.000000 1.000000
vn 0.000000 0.000000 1.000000
vn 0.000000 0.000000 1.000000
vn 0.000000 0.000000 1.000000
vn 0.000000 0.000000 1.000000
vn 0.000000 0.000000 1.000000
vn 0.000000 0.000000 1.000000
vn 0.000000 0.000000 1.000000
vn 0.000000 0.000000 1.000000
vn 0.000000 0.000000 1.000000
vn 0.000000 0.000000 1.000000
vn 0.955573 -0.294755 -0.000000
vn 0.955573 -0.294755 -0.000000
vn 1.000000 -0.000000 -0.000000
vn 1.000000 -0.000000 -0.000000
vn 0.955573 0.294755 -0.000000
vn 0.955573 0.294755 -0.000000
vn 0.826239 0.563320 -0.000000
vn 0.826239 0.563320 -0.000000
vn 0.623490 0.781831 -0.000000
vn 0.623490 0.781831 -0.000000
vn 0.365341 0.930874 -0.000000
vn 0.365341 0.930874 -0.000000
vn 0.074730 0.997204 -0.000000
vn 0.074730 0.997204 -0.000000
vn -0.222521 0.974928 -0.000000
vn -0.222521 0.974928 -0.000000
vn -0.500000 0.866025 -0.000000
vn -0.500000 0.866025 -0.000000
vn -0.733052 0.680173 -0.000000
vn -0.733052 0.680173 -0.000000
vn -0.900969 0.433884 -0.000000
vn -0.900969 0.433884 -0.000000
vn -0.988831 0.149042 -0.000000
vn -0.988831 0.149042 -0.000000
vn -0.988831 -0.149042 0.000000
vn -0.988831 -0.149042 0.000000
vn -0.900969 -0.433884 0.000000
vn -0.900969 -0.433884 0.000000
vn -0.733052 -0.680173 0.000000
vn -0.733052 -0.680173 0.000000
vn -0.500000 -0.866025 0.000000
vn -0.500000 -0.866025 0.000000
vn -0.222521 -0.974928 0.000000
vn -0.222521 -0.974928 0.000000
vn 0.074730 -0.997204 -0.000000
vn 0.074730 -0.997204 -0.000000
vn 0.365341 -0.930874 -0.000000
vn 0.365341 -0.930874 -0.000000
vn 0.623490 -0.781831 -0.000000
vn 0.623490 -0.781831 -0.000000
vn 0.826239 -0.563320 -0.000000
vn 0.826239 -0.563320 -0.000000
vn -0.000000 -0.000000 -1.000000
vn -0.000000 -0.000000 -1.000000
vn -0.000000 -0.000000 -1.000000
vn -0.000000 -0.000000 -1.000000
vn -0.000000 -0.000000 -1.000000
vn -0.000000 -0.000000 -1.000000
vn -0.000000 -0.000000 -1.000000
vn -0.000000 -0.000000 -1.000000
vn -0.000000 -0.000000 -1.000000
vn -0.000000 -0.000000 -1.000000
vn -0.000000 -0.000000 -1.000000
vn -0.000000 -0.000000 -1.000000
vn -0.000000 -0.000000 -1.000000
vn -0.000000 -0.000000 -1.000000
vn -0.000000 -0.000000 -1.000000
vn -0.000000 -0.000000 -1.000000
vn -0.000000 -0.000000 -1.000000
vn -0.000000 -0.000000 -1.000000
vn -0.000000 -0.000000 -1.000000
vn -0.000000 -0.000000 -1.000000
vn -0.000000 -0.000000 -1.000000
usemtl Steel_-_Satin
f 21/1/1 1/2/2 7/3/3
f 7/3/3 1/2/2 2/4/4
f 7/3/3 2/4/4 3/5/5
f 3/5/5 4/6/6 7/3/3
f 7/3/3 4/6/6 5/7/7
f 7/3/3 5/7/7 6/8/8
f 8/9/9 16/10/10 7/3/3
f 7/3/3 16/10/10 17/11/11
f 7/3/3 17/11/11 18/12/12
f 16/10/10 8/9/9 15/13/13
f 15/13/13 8/9/9 9/14/14
f 15/13/13 9/14/14 14/15/15
f 14/15/15 9/14/14 10/16/16
f 14/15/15 10/16/16 13/17/17
f 13/17/17 10/16/16 11/18/18
f 13/17/17 11/18/18 12/19/19
f 18/12/12 19/20/20 7/3/3
f 7/3/3 19/20/20 20/21/21
f 7/3/3 20/21/21 21/1/1
f 21/22/22 42/23/23 1/24/24
f 1/24/24 42/23/23 22/25/25
f 1/26/24 22/27/25 2/28/26
f 2/28/26 22/27/25 23/29/27
f 2/28/26 23/29/27 3/30/28
f 3/30/28 23/29/27 24/31/29
f 3/30/28 24/31/29 4/32/30
f 4/32/30 24/31/29 25/33/31
f 4/32/30 25/33/31 5/34/32
f 5/34/32 25/33/31 26/35/33
f 5/34/32 26/35/33 6/36/34
f 6/36/34 26/35/33 27/37/35
f 6/36/34 27/37/35 7/38/36
f 7/38/36 27/37/35 28/39/37
f 7/38/36 28/39/37 8/40/38
f 8/40/38 28/39/37 29/41/39
f 8/40/38 29/41/39 9/42/40
f 9/42/40 29/41/39 30/43/41
f 9/42/40 30/43/41 10/44/42
f 10/44/42 30/43/41 31/45/43
f 10/44/42 31/45/43 11/46/44
f 11/46/44 31/45/43 32/47/45
f 11/46/44 32/47/45 12/48/46
f 12/48/46 32/47/45 33/49/47
f 12/48/46 33/49/47 13/50/48
f 13/50/48 33/49/47 34/51/49
f 13/50/48 34/51/49 14/52/50
f 14/52/50 34/51/49 35/53/51
f 14/52/50 35/53/51 15/54/52
f 15/54/52 35/53/51 36/55/53
f 15/54/52 36/55/53 16/56/54
f 16/56/54 36/55/53 37/57/55
f 16/56/54 37/57/55 17/58/56
f 17/58/56 37/57/55 38/59/57
f 17/58/56 38/59/57 18/60/58
f 18/60/58 38/59/57 39/61/59
f 18/60/58 39/61/59 19/62/60
f 19/62/60 39/61/59 40/63/61
f 19/62/60 40/63/61 20/64/62
f 20/64/62 40/63/61 41/65/63
f 20/64/62 41/65/63 21/22/22
f 21/22/22 41/65/63 42/23/23
f 23/66/64 22/67/65 28/68/66
f 28/68/66 22/67/65 42/69/67
f 28/68/66 42/69/67 41/70/68
f 41/70/68 40/71/69 28/68/66
f 28/68/66 40/71/69 39/72/70
f 28/68/66 39/72/70 38/73/71
f 38/73/71 37/74/72 28/68/66
f 28/68/66 37/74/72 29/75/73
f 29/75/73 37/74/72 36/76/74
f 29/75/73 36/76/74 30/77/75
f 30/77/75 36/76/74 35/78/76
f 30/77/75 35/78/76 31/79/77
f 31/79/77 35/78/76 34/80/78
f 31/79/77 34/80/78 32/81/79
f 32/81/79 34/80/78 33/82/80
f 27/83/81 26/84/82 28/68/66
f 28/68/66 26/84/82 25/85/83
f 28/68/66 25/85/83 24/86/84
f 24/86/84 23/66/64 28/68/66
# 42 vertices
# 86 texture params
# 84 normals
# 80 facets

# 1 groups
