# WaveFront *.obj file (generated by Autodesk ATF)

mtllib body_visual.mtl

g body

v 5.137248 7.050000 -1.310487
v 5.137248 7.050000 -1.110487
v 5.137248 -7.050000 -1.110487
v 5.137248 -7.050000 -1.310487
v -5.282752 7.050000 -1.310487
v -5.282752 -7.050000 -1.310487
v -5.282752 7.050000 -1.110487
v -5.282752 -7.050000 -1.110487
v -14.649876 -7.050000 3.409671
v 14.649876 -7.050000 3.409671
v 14.649876 -7.050000 -1.390329
v -14.649876 -7.050000 -1.390329
v 14.649876 7.050000 3.409671
v 14.649876 7.050000 -1.390329
v -14.649876 7.050000 3.409671
v -14.649876 7.050000 -1.390329
v 14.849876 -7.250000 3.609671
v -14.849876 -7.250000 3.609671
v -14.849876 -7.250000 -1.390329
v 14.849876 -7.250000 -1.390329
v 14.849876 7.250000 3.609671
v 14.849876 7.250000 -1.390329
v -14.849876 7.250000 3.609671
v -14.849876 7.250000 -1.390329
vt 0.000000 0.000000 0.000000
vt 0.200000 0.000000 0.000000
vt 0.000000 14.100000 0.000000
vt 0.200000 14.100000 0.000000
vt 0.000000 0.000000 0.000000
vt 10.420000 0.000000 0.000000
vt -0.000000 14.100000 0.000000
vt 10.420000 14.100000 0.000000
vt -0.000000 0.000000 0.000000
vt 0.200000 -0.000000 0.000000
vt 0.000000 14.100000 0.000000
vt 0.200000 14.100000 0.000000
vt 0.000000 0.000000 0.000000
vt 10.420000 0.000000 0.000000
vt 0.000000 14.100000 0.000000
vt 10.420000 14.100000 0.000000
vt -9.712628 4.720158 0.000000
vt -0.200000 5.000000 0.000000
vt -9.712628 4.920158 0.000000
vt -29.499751 5.000000 0.000000
vt -20.132628 4.920158 0.000000
vt -20.132628 4.720158 0.000000
vt -29.499751 0.200000 0.000000
vt -0.200000 0.200000 0.000000
vt -14.300001 0.200000 0.000000
vt -0.200000 0.200000 0.000000
vt -14.300001 5.000000 0.000000
vt -0.200000 5.000000 0.000000
vt -19.987123 4.920158 0.000000
vt -29.499751 5.000000 0.000000
vt -19.987123 4.720158 0.000000
vt -29.499751 0.200000 0.000000
vt -0.200000 0.200000 0.000000
vt -0.200000 5.000000 0.000000
vt -9.567123 4.920158 0.000000
vt -9.567123 4.720158 0.000000
vt -14.300001 0.200000 0.000000
vt -0.200000 0.200000 0.000000
vt -14.300001 5.000000 0.000000
vt -0.200000 5.000000 0.000000
vt 14.649876 7.050000 0.000000
vt -14.649876 7.050000 0.000000
vt 14.649876 -7.050000 0.000000
vt -14.649876 -7.050000 0.000000
vt -0.000000 0.000000 0.000000
vt 29.699751 0.000000 0.000000
vt 0.000000 5.000000 0.000000
vt 29.699751 5.000000 0.000000
vt -0.000000 0.000000 0.000000
vt 14.500001 0.000000 0.000000
vt 0.000000 5.000000 0.000000
vt 14.500001 5.000000 0.000000
vt 0.000000 0.000000 0.000000
vt 29.699751 0.000000 0.000000
vt 0.000000 5.000000 0.000000
vt 29.699751 5.000000 0.000000
vt 0.000000 0.000000 0.000000
vt 14.500001 0.000000 0.000000
vt 0.000000 5.000000 0.000000
vt 14.500001 5.000000 0.000000
vt -14.849876 -7.250000 0.000000
vt 14.849876 -7.250000 0.000000
vt -14.849876 7.250000 0.000000
vt 14.849876 7.250000 0.000000
vt 14.649876 7.050000 0.000000
vt 14.649876 -7.050000 0.000000
vt 14.849876 -7.250000 0.000000
vt -14.649876 -7.050000 0.000000
vt -14.849876 -7.250000 0.000000
vt -14.649876 7.050000 0.000000
vt -14.849876 7.250000 0.000000
vt 14.849876 7.250000 0.000000
vn 1.000000 0.000000 0.000000
vn 1.000000 0.000000 0.000000
vn 1.000000 0.000000 0.000000
vn 1.000000 0.000000 0.000000
vn 0.000000 -0.000000 -1.000000
vn 0.000000 -0.000000 -1.000000
vn 0.000000 -0.000000 -1.000000
vn 0.000000 -0.000000 -1.000000
vn -1.000000 0.000000 0.000000
vn -1.000000 0.000000 0.000000
vn -1.000000 0.000000 0.000000
vn -1.000000 0.000000 0.000000
vn -0.000000 0.000000 1.000000
vn -0.000000 0.000000 1.000000
vn -0.000000 0.000000 1.000000
vn -0.000000 0.000000 1.000000
vn -0.000000 1.000000 -0.000000
vn -0.000000 1.000000 -0.000000
vn -0.000000 1.000000 -0.000000
vn -0.000000 1.000000 -0.000000
vn -0.000000 1.000000 -0.000000
vn -0.000000 1.000000 -0.000000
vn -0.000000 1.000000 -0.000000
vn -0.000000 1.000000 -0.000000
vn -1.000000 0.000000 -0.000000
vn -1.000000 0.000000 -0.000000
vn -1.000000 0.000000 -0.000000
vn -1.000000 0.000000 -0.000000
vn -0.000000 -1.000000 -0.000000
vn -0.000000 -1.000000 -0.000000
vn -0.000000 -1.000000 -0.000000
vn -0.000000 -1.000000 -0.000000
vn -0.000000 -1.000000 -0.000000
vn -0.000000 -1.000000 -0.000000
vn -0.000000 -1.000000 -0.000000
vn -0.000000 -1.000000 -0.000000
vn 1.000000 0.000000 0.000000
vn 1.000000 0.000000 0.000000
vn 1.000000 0.000000 0.000000
vn 1.000000 0.000000 0.000000
vn -0.000000 -0.000000 -1.000000
vn -0.000000 -0.000000 -1.000000
vn -0.000000 -0.000000 -1.000000
vn -0.000000 -0.000000 -1.000000
vn 0.000000 -1.000000 0.000000
vn 0.000000 -1.000000 0.000000
vn 0.000000 -1.000000 0.000000
vn 0.000000 -1.000000 0.000000
vn 1.000000 -0.000000 0.000000
vn 1.000000 -0.000000 0.000000
vn 1.000000 -0.000000 0.000000
vn 1.000000 -0.000000 0.000000
vn 0.000000 1.000000 0.000000
vn 0.000000 1.000000 0.000000
vn 0.000000 1.000000 0.000000
vn 0.000000 1.000000 0.000000
vn -1.000000 -0.000000 -0.000000
vn -1.000000 -0.000000 -0.000000
vn -1.000000 -0.000000 -0.000000
vn -1.000000 -0.000000 -0.000000
vn 0.000000 0.000000 1.000000
vn 0.000000 0.000000 1.000000
vn 0.000000 0.000000 1.000000
vn 0.000000 0.000000 1.000000
vn 0.000000 0.000000 -1.000000
vn 0.000000 0.000000 -1.000000
vn 0.000000 0.000000 -1.000000
vn 0.000000 0.000000 -1.000000
vn 0.000000 0.000000 -1.000000
vn 0.000000 0.000000 -1.000000
vn 0.000000 0.000000 -1.000000
vn 0.000000 0.000000 -1.000000
usemtl Steel_-_Satin
f 1/1/1 2/2/2 4/3/3
f 4/3/3 2/2/2 3/4/4
f 5/5/5 1/6/6 6/7/7
f 6/7/7 1/6/6 4/8/8
f 7/9/9 5/10/10 8/11/11
f 8/11/11 5/10/10 6/12/12
f 2/13/13 7/14/14 3/15/15
f 3/15/15 7/14/14 8/16/16
f 3/17/17 11/18/18 4/19/19
f 4/19/19 11/18/18 12/20/20
f 4/19/19 12/20/20 6/21/21
f 6/21/21 12/20/20 8/22/22
f 8/22/22 12/20/20 9/23/23
f 8/22/22 9/23/23 3/17/17
f 3/17/17 9/23/23 10/24/24
f 3/17/17 10/24/24 11/18/18
f 10/25/25 13/26/26 11/27/27
f 11/27/27 13/26/26 14/28/28
f 1/29/29 14/30/30 2/31/31
f 2/31/31 14/30/30 13/32/32
f 2/31/31 13/32/32 15/33/33
f 14/30/30 1/29/29 16/34/34
f 16/34/34 1/29/29 5/35/35
f 16/34/34 5/35/35 7/36/36
f 16/34/34 7/36/36 15/33/33
f 15/33/33 7/36/36 2/31/31
f 15/37/37 9/38/38 16/39/39
f 16/39/39 9/38/38 12/40/40
f 15/41/41 13/42/42 9/43/43
f 9/43/43 13/42/42 10/44/44
f 17/45/45 18/46/46 20/47/47
f 20/47/47 18/46/46 19/48/48
f 21/49/49 17/50/50 22/51/51
f 22/51/51 17/50/50 20/52/52
f 23/53/53 21/54/54 24/55/55
f 24/55/55 21/54/54 22/56/56
f 18/57/57 23/58/58 19/59/59
f 19/59/59 23/58/58 24/60/60
f 18/61/61 17/62/62 23/63/63
f 23/63/63 17/62/62 21/64/64
f 16/65/65 12/66/66 19/67/67
f 19/67/67 12/66/66 11/68/68
f 19/67/67 11/68/68 20/69/69
f 20/69/69 11/68/68 14/70/70
f 20/69/69 14/70/70 22/71/71
f 22/71/71 14/70/70 16/65/65
f 22/71/71 16/65/65 24/72/72
f 24/72/72 16/65/65 19/67/67
# 24 vertices
# 72 texture params
# 72 normals
# 48 facets

# 1 groups
