# WaveFront *.obj file (generated by Autodesk ATF)

mtllib upper_plate_visual.mtl

g upper plate

v -0.000000 0.300000 10.409671
v 0.150000 0.259808 10.409671
v 0.259808 0.150000 10.409671
v 0.300000 0.000000 10.409671
v 0.259808 -0.150000 10.409671
v 0.150000 -0.259808 10.409671
v -0.000000 -0.300000 10.409671
v -0.150000 -0.259808 10.409671
v -0.259808 -0.150000 10.409671
v -0.300000 0.000000 10.409671
v -0.259808 0.150000 10.409671
v -0.150000 0.259808 10.409671
v 0.000000 0.300000 3.609671
v -0.150000 0.259808 3.609671
v -0.259808 0.150000 3.609671
v -0.300000 0.000000 3.609671
v -0.259808 -0.150000 3.609671
v -0.150000 -0.259808 3.609671
v -0.000000 -0.300000 3.609671
v 0.150000 -0.259808 3.609671
v 0.259808 -0.150000 3.609671
v 0.300000 -0.000000 3.609671
v 0.259808 0.150000 3.609671
v 0.150000 0.259808 3.609671
v -0.000000 0.300000 7.009671
v 0.150000 0.259808 7.009671
v 0.259808 0.150000 7.009671
v 0.300000 0.000000 7.009671
v 0.259808 -0.150000 7.009671
v 0.150000 -0.259808 7.009671
v -0.000000 -0.300000 7.009671
v -0.150000 -0.259808 7.009671
v -0.259808 -0.150000 7.009671
v -0.300000 0.000000 7.009671
v -0.259808 0.150000 7.009671
v -0.150000 0.259808 7.009671
v -12.850000 6.600000 10.409671
v -12.850000 -6.600000 10.409671
v -12.850000 -6.600000 10.609671
v -12.850000 6.600000 10.609671
v 12.850000 6.600000 10.409671
v 12.850000 6.600000 10.609671
v 12.850000 -6.600000 10.409671
v 12.850000 -6.600000 10.609671
vt -6.800000 0.785398 0.000000
vt -3.400000 0.785398 0.000000
vt -6.800000 0.942478 0.000000
vt -3.400000 0.942478 0.000000
vt -6.800000 -0.942478 0.000000
vt -3.400000 -0.942478 0.000000
vt -6.800000 -0.785398 0.000000
vt -3.400000 -0.785398 0.000000
vt -6.800000 -0.628319 0.000000
vt -3.400000 -0.628319 0.000000
vt -6.800000 -0.471239 0.000000
vt -3.400000 -0.471239 0.000000
vt -6.800000 -0.314159 0.000000
vt -3.400000 -0.314159 0.000000
vt -6.800000 -0.157080 0.000000
vt -3.400000 -0.157080 0.000000
vt -6.800000 0.000000 0.000000
vt -3.400000 0.000000 0.000000
vt -6.800000 0.157080 0.000000
vt -3.400000 0.157080 0.000000
vt -6.800000 0.314159 0.000000
vt -3.400000 0.314159 0.000000
vt -6.800000 0.471239 0.000000
vt -3.400000 0.471239 0.000000
vt -6.800000 0.628319 0.000000
vt -3.400000 0.628319 0.000000
vt 0.000000 -0.785398 0.000000
vt 0.000000 -0.942478 0.000000
vt 0.000000 0.942478 0.000000
vt 0.000000 0.785398 0.000000
vt 0.000000 0.628319 0.000000
vt -0.000000 0.471239 0.000000
vt -0.000000 0.314159 0.000000
vt -0.000000 0.157080 0.000000
vt -0.000000 0.000000 0.000000
vt -0.000000 -0.157080 0.000000
vt -0.000000 -0.314159 0.000000
vt 0.000000 -0.471239 0.000000
vt 0.000000 -0.628319 0.000000
vt 0.259808 0.150000 0.000000
vt -0.259808 0.150000 0.000000
vt 0.300000 -0.000000 0.000000
vt -0.300000 0.000000 0.000000
vt 0.259808 -0.150000 0.000000
vt -0.259808 -0.150000 0.000000
vt 0.150000 -0.259808 0.000000
vt -0.150000 -0.259808 0.000000
vt -0.000000 -0.300000 0.000000
vt -0.150000 0.259808 0.000000
vt 0.150000 0.259808 0.000000
vt -0.000000 0.300000 0.000000
vt 0.000000 0.000000 0.000000
vt 13.200000 0.000000 0.000000
vt -0.000000 0.200000 0.000000
vt 13.200000 0.200000 0.000000
vt 0.000000 0.000000 0.000000
vt 25.700000 -0.000000 0.000000
vt -0.000000 0.200000 0.000000
vt 25.700000 0.200000 0.000000
vt 0.000000 0.000000 0.000000
vt 13.200000 0.000000 0.000000
vt 0.000000 0.200000 0.000000
vt 13.200000 0.200000 0.000000
vt 0.000000 0.000000 0.000000
vt 25.700000 -0.000000 0.000000
vt 0.000000 0.200000 0.000000
vt 25.700000 0.200000 0.000000
vt 6.600000 12.850000 0.000000
vt -6.600000 12.850000 0.000000
vt 6.600000 -12.850000 0.000000
vt -6.600000 -12.850000 0.000000
vt 0.259808 -0.150000 0.000000
vt 6.600000 -12.850000 0.000000
vt 0.300000 -0.000000 0.000000
vt 6.600000 12.850000 0.000000
vt 0.259808 0.150000 0.000000
vt 0.150000 0.259808 0.000000
vt -0.000000 0.300000 0.000000
vt -6.600000 12.850000 0.000000
vt -0.150000 0.259808 0.000000
vt -0.259808 0.150000 0.000000
vt -0.300000 0.000000 0.000000
vt -6.600000 -12.850000 0.000000
vt -0.259808 -0.150000 0.000000
vt -0.150000 -0.259808 0.000000
vt -0.000000 -0.300000 0.000000
vt 0.150000 -0.259808 0.000000
vn 0.500000 0.866025 -0.000000
vn 0.500000 0.866025 -0.000000
vn 0.000000 1.000000 -0.000000
vn 0.000000 1.000000 -0.000000
vn -0.500000 0.866025 -0.000000
vn -0.500000 0.866025 -0.000000
vn -0.866025 0.500000 -0.000000
vn -0.866025 0.500000 -0.000000
vn -1.000000 0.000000 -0.000000
vn -1.000000 0.000000 -0.000000
vn -0.866025 -0.500000 -0.000000
vn -0.866025 -0.500000 -0.000000
vn -0.500000 -0.866025 0.000000
vn -0.500000 -0.866025 0.000000
vn -0.000000 -1.000000 0.000000
vn -0.000000 -1.000000 0.000000
vn 0.500000 -0.866025 0.000000
vn 0.500000 -0.866025 0.000000
vn 0.866025 -0.500000 0.000000
vn 0.866025 -0.500000 0.000000
vn 1.000000 -0.000000 0.000000
vn 1.000000 -0.000000 0.000000
vn 0.866025 0.500000 0.000000
vn 0.866025 0.500000 0.000000
vn -0.500000 0.866025 -0.000000
vn 0.000000 1.000000 -0.000000
vn 0.500000 0.866025 -0.000000
vn 0.866025 0.500000 0.000000
vn 1.000000 -0.000000 0.000000
vn 0.866025 -0.500000 0.000000
vn 0.500000 -0.866025 0.000000
vn -0.000000 -1.000000 0.000000
vn -0.500000 -0.866025 0.000000
vn -0.866025 -0.500000 -0.000000
vn -1.000000 0.000000 -0.000000
vn -0.866025 0.500000 -0.000000
vn 0.000000 -0.000000 -1.000000
vn 0.000000 -0.000000 -1.000000
vn 0.000000 -0.000000 -1.000000
vn 0.000000 -0.000000 -1.000000
vn 0.000000 -0.000000 -1.000000
vn 0.000000 -0.000000 -1.000000
vn 0.000000 -0.000000 -1.000000
vn 0.000000 -0.000000 -1.000000
vn 0.000000 -0.000000 -1.000000
vn 0.000000 -0.000000 -1.000000
vn 0.000000 -0.000000 -1.000000
vn 0.000000 -0.000000 -1.000000
vn -1.000000 0.000000 -0.000000
vn -1.000000 0.000000 -0.000000
vn -1.000000 0.000000 -0.000000
vn -1.000000 0.000000 -0.000000
vn 0.000000 1.000000 -0.000000
vn 0.000000 1.000000 -0.000000
vn 0.000000 1.000000 -0.000000
vn 0.000000 1.000000 -0.000000
vn 1.000000 -0.000000 0.000000
vn 1.000000 -0.000000 0.000000
vn 1.000000 -0.000000 0.000000
vn 1.000000 -0.000000 0.000000
vn -0.000000 -1.000000 0.000000
vn -0.000000 -1.000000 0.000000
vn -0.000000 -1.000000 0.000000
vn -0.000000 -1.000000 0.000000
vn -0.000000 0.000000 1.000000
vn -0.000000 0.000000 1.000000
vn -0.000000 0.000000 1.000000
vn -0.000000 0.000000 1.000000
vn 0.000000 -0.000000 -1.000000
vn 0.000000 -0.000000 -1.000000
vn 0.000000 -0.000000 -1.000000
vn 0.000000 -0.000000 -1.000000
vn 0.000000 -0.000000 -1.000000
vn 0.000000 -0.000000 -1.000000
vn 0.000000 -0.000000 -1.000000
vn 0.000000 -0.000000 -1.000000
vn 0.000000 -0.000000 -1.000000
vn 0.000000 -0.000000 -1.000000
vn 0.000000 -0.000000 -1.000000
vn 0.000000 -0.000000 -1.000000
vn 0.000000 -0.000000 -1.000000
vn 0.000000 -0.000000 -1.000000
vn 0.000000 -0.000000 -1.000000
vn 0.000000 -0.000000 -1.000000
usemtl Steel_-_Satin
f 2/1/1 26/2/2 1/3/3
f 1/3/3 26/2/2 25/4/4
f 1/5/3 25/6/4 12/7/5
f 12/7/5 25/6/4 36/8/6
f 12/7/5 36/8/6 11/9/7
f 11/9/7 36/8/6 35/10/8
f 11/9/7 35/10/8 10/11/9
f 10/11/9 35/10/8 34/12/10
f 10/11/9 34/12/10 9/13/11
f 9/13/11 34/12/10 33/14/12
f 9/13/11 33/14/12 8/15/13
f 8/15/13 33/14/12 32/16/14
f 8/15/13 32/16/14 7/17/15
f 7/17/15 32/16/14 31/18/16
f 7/17/15 31/18/16 6/19/17
f 6/19/17 31/18/16 30/20/18
f 6/19/17 30/20/18 5/21/19
f 5/21/19 30/20/18 29/22/20
f 5/21/19 29/22/20 4/23/21
f 4/23/21 29/22/20 28/24/22
f 4/23/21 28/24/22 3/25/23
f 3/25/23 28/24/22 27/26/24
f 3/25/23 27/26/24 2/1/1
f 2/1/1 27/26/24 26/2/2
f 14/27/25 36/8/6 13/28/26
f 13/28/26 36/8/6 25/6/4
f 13/29/26 25/4/4 24/30/27
f 24/30/27 25/4/4 26/2/2
f 24/30/27 26/2/2 23/31/28
f 23/31/28 26/2/2 27/26/24
f 23/31/28 27/26/24 22/32/29
f 22/32/29 27/26/24 28/24/22
f 22/32/29 28/24/22 21/33/30
f 21/33/30 28/24/22 29/22/20
f 21/33/30 29/22/20 20/34/31
f 20/34/31 29/22/20 30/20/18
f 20/34/31 30/20/18 19/35/32
f 19/35/32 30/20/18 31/18/16
f 19/35/32 31/18/16 18/36/33
f 18/36/33 31/18/16 32/16/14
f 18/36/33 32/16/14 17/37/34
f 17/37/34 32/16/14 33/14/12
f 17/37/34 33/14/12 16/38/35
f 16/38/35 33/14/12 34/12/10
f 16/38/35 34/12/10 15/39/36
f 15/39/36 34/12/10 35/10/8
f 15/39/36 35/10/8 14/27/25
f 14/27/25 35/10/8 36/8/6
f 24/40/37 20/41/38 13/42/39
f 13/42/39 20/41/38 19/43/40
f 13/42/39 19/43/40 14/44/41
f 14/44/41 19/43/40 18/45/42
f 14/44/41 18/45/42 15/46/43
f 15/46/43 18/45/42 17/47/44
f 15/46/43 17/47/44 16/48/45
f 20/41/38 24/40/37 21/49/46
f 21/49/46 24/40/37 23/50/47
f 21/49/46 23/50/47 22/51/48
f 37/52/49 38/53/50 40/54/51
f 40/54/51 38/53/50 39/55/52
f 41/56/53 37/57/54 42/58/55
f 42/58/55 37/57/54 40/59/56
f 43/60/57 41/61/58 44/62/59
f 44/62/59 41/61/58 42/63/60
f 38/64/61 43/65/62 39/66/63
f 39/66/63 43/65/62 44/67/64
f 44/68/65 42/69/66 39/70/67
f 39/70/67 42/69/66 40/71/68
f 12/72/69 37/73/70 1/74/71
f 1/74/71 37/73/70 41/75/72
f 1/74/71 41/75/72 2/76/73
f 2/76/73 41/75/72 3/77/74
f 3/77/74 41/75/72 4/78/75
f 4/78/75 41/75/72 43/79/76
f 4/78/75 43/79/76 5/80/77
f 5/80/77 43/79/76 6/81/78
f 6/81/78 43/79/76 7/82/79
f 7/82/79 43/79/76 38/83/80
f 7/82/79 38/83/80 8/84/81
f 8/84/81 38/83/80 9/85/82
f 9/85/82 38/83/80 10/86/83
f 10/86/83 38/83/80 37/73/70
f 10/86/83 37/73/70 11/87/84
f 11/87/84 37/73/70 12/72/69
# 44 vertices
# 87 texture params
# 84 normals
# 84 facets

# 1 groups
