# WaveFront *.obj file (generated by Autodesk ATF)

mtllib camera_visual.mtl

g camera

v -0.700000 -14.850000 13.600000
v -0.606218 -14.850000 13.950000
v -0.350000 -14.850000 14.206218
v 0.000000 -14.850000 14.300000
v 0.350000 -14.850000 14.206218
v 0.606218 -14.850000 13.950000
v 0.700000 -14.850000 13.600000
v 0.606218 -14.850000 13.250000
v 0.350000 -14.850000 12.993782
v 0.000000 -14.850000 12.900000
v -0.350000 -14.850000 12.993782
v -0.606218 -14.850000 13.250000
v -0.700000 -13.350000 13.600000
v -0.606218 -13.350000 13.250000
v -0.350000 -13.350000 12.993782
v 0.000000 -13.350000 12.900000
v 0.350000 -13.350000 12.993782
v 0.606218 -13.350000 13.250000
v 0.700000 -13.350000 13.600000
v 0.606218 -13.350000 13.950000
v 0.350000 -13.350000 14.206218
v 0.000000 -13.350000 14.300000
v -0.350000 -13.350000 14.206218
v -0.606218 -13.350000 13.950000
v 1.800000 -12.850000 15.400000
v -1.800000 -12.850000 15.400000
v -1.800000 -13.350000 15.400000
v 1.800000 -13.350000 15.400000
v 1.800000 -12.850000 11.800000
v 1.800000 -13.350000 11.800000
v -1.800000 -12.850000 11.800000
v -1.800000 -13.350000 11.800000
vt -1.500000 1.832596 0.000000
vt -0.000000 1.832596 0.000000
vt -1.500000 2.199115 0.000000
vt -0.000000 2.199115 0.000000
vt -1.500000 -2.199115 0.000000
vt -0.000000 -2.199115 0.000000
vt -1.500000 -1.832596 0.000000
vt 0.000000 -1.832596 0.000000
vt -1.500000 -1.466077 0.000000
vt 0.000000 -1.466077 0.000000
vt -1.500000 -1.099557 0.000000
vt -0.000000 -1.099557 0.000000
vt -1.500000 -0.733038 0.000000
vt -0.000000 -0.733038 0.000000
vt -1.500000 -0.366519 0.000000
vt -0.000000 -0.366519 0.000000
vt -1.500000 0.000000 0.000000
vt -0.000000 0.000000 0.000000
vt -1.500000 0.366519 0.000000
vt -0.000000 0.366519 0.000000
vt -1.500000 0.733038 0.000000
vt -0.000000 0.733038 0.000000
vt -1.500000 1.099557 0.000000
vt -0.000000 1.099557 0.000000
vt -1.500000 1.466077 0.000000
vt -0.000000 1.466077 0.000000
vt -0.606218 -0.350000 0.000000
vt 0.606218 -0.350000 0.000000
vt -0.700000 0.000000 0.000000
vt 0.700000 0.000000 0.000000
vt -0.606218 0.350000 0.000000
vt 0.606218 0.350000 0.000000
vt -0.350000 0.606218 0.000000
vt 0.350000 0.606218 0.000000
vt 0.000000 0.700000 0.000000
vt 0.350000 -0.606218 0.000000
vt -0.350000 -0.606218 0.000000
vt 0.000000 -0.700000 0.000000
vt 0.000000 0.000000 0.000000
vt 3.600000 0.000000 0.000000
vt 0.000000 0.500000 0.000000
vt 3.600000 0.500000 0.000000
vt 0.000000 0.000000 0.000000
vt 3.600000 0.000000 0.000000
vt 0.000000 0.500000 0.000000
vt 3.600000 0.500000 0.000000
vt 0.000000 0.000000 0.000000
vt 3.600000 0.000000 0.000000
vt 0.000000 0.500000 0.000000
vt 3.600000 0.500000 0.000000
vt 0.000000 0.000000 0.000000
vt 3.600000 0.000000 0.000000
vt 0.000000 0.500000 0.000000
vt 3.600000 0.500000 0.000000
vt -0.350000 -0.606218 0.000000
vt -1.800000 -1.800000 0.000000
vt 0.000000 -0.700000 0.000000
vt 1.800000 -1.800000 0.000000
vt 0.350000 -0.606218 0.000000
vt 0.606218 -0.350000 0.000000
vt 0.700000 0.000000 0.000000
vt 1.800000 1.800000 0.000000
vt 0.606218 0.350000 0.000000
vt 0.350000 0.606218 0.000000
vt 0.000000 0.700000 0.000000
vt -1.800000 1.800000 0.000000
vt -0.350000 0.606218 0.000000
vt -0.606218 0.350000 0.000000
vt -0.700000 0.000000 0.000000
vt -0.606218 -0.350000 0.000000
vt 1.800000 1.800000 0.000000
vt -1.800000 1.800000 0.000000
vt 1.800000 -1.800000 0.000000
vt -1.800000 -1.800000 0.000000
vn -0.866025 -0.000000 0.500000
vn -0.866025 -0.000000 0.500000
vn -1.000000 -0.000000 0.000000
vn -1.000000 -0.000000 0.000000
vn -0.866025 -0.000000 -0.500000
vn -0.866025 -0.000000 -0.500000
vn -0.500000 -0.000000 -0.866025
vn -0.500000 -0.000000 -0.866025
vn 0.000000 -0.000000 -1.000000
vn 0.000000 -0.000000 -1.000000
vn 0.500000 -0.000000 -0.866025
vn 0.500000 -0.000000 -0.866025
vn 0.866025 -0.000000 -0.500000
vn 0.866025 -0.000000 -0.500000
vn 1.000000 0.000000 -0.000000
vn 1.000000 0.000000 -0.000000
vn 0.866025 0.000000 0.500000
vn 0.866025 0.000000 0.500000
vn 0.500000 0.000000 0.866025
vn 0.500000 0.000000 0.866025
vn 0.000000 0.000000 1.000000
vn 0.000000 0.000000 1.000000
vn -0.500000 -0.000000 0.866025
vn -0.500000 -0.000000 0.866025
vn 0.000000 -1.000000 0.000000
vn 0.000000 -1.000000 0.000000
vn 0.000000 -1.000000 0.000000
vn 0.000000 -1.000000 0.000000
vn 0.000000 -1.000000 0.000000
vn 0.000000 -1.000000 0.000000
vn 0.000000 -1.000000 0.000000
vn 0.000000 -1.000000 0.000000
vn 0.000000 -1.000000 0.000000
vn 0.000000 -1.000000 0.000000
vn 0.000000 -1.000000 0.000000
vn 0.000000 -1.000000 0.000000
vn 0.000000 0.000000 1.000000
vn 0.000000 0.000000 1.000000
vn 0.000000 0.000000 1.000000
vn 0.000000 0.000000 1.000000
vn 1.000000 0.000000 0.000000
vn 1.000000 0.000000 0.000000
vn 1.000000 0.000000 0.000000
vn 1.000000 0.000000 0.000000
vn 0.000000 0.000000 -1.000000
vn 0.000000 0.000000 -1.000000
vn 0.000000 0.000000 -1.000000
vn 0.000000 0.000000 -1.000000
vn -1.000000 -0.000000 -0.000000
vn -1.000000 -0.000000 -0.000000
vn -1.000000 -0.000000 -0.000000
vn -1.000000 -0.000000 -0.000000
vn 0.000000 -1.000000 0.000000
vn 0.000000 -1.000000 0.000000
vn 0.000000 -1.000000 0.000000
vn 0.000000 -1.000000 0.000000
vn 0.000000 -1.000000 0.000000
vn 0.000000 -1.000000 0.000000
vn 0.000000 -1.000000 0.000000
vn 0.000000 -1.000000 0.000000
vn 0.000000 -1.000000 0.000000
vn 0.000000 -1.000000 0.000000
vn 0.000000 -1.000000 0.000000
vn 0.000000 -1.000000 0.000000
vn 0.000000 -1.000000 0.000000
vn 0.000000 -1.000000 0.000000
vn 0.000000 -1.000000 0.000000
vn 0.000000 -1.000000 0.000000
vn -0.000000 1.000000 -0.000000
vn -0.000000 1.000000 -0.000000
vn -0.000000 1.000000 -0.000000
vn -0.000000 1.000000 -0.000000
usemtl Steel_-_Satin
f 2/1/1 24/2/2 1/3/3
f 1/3/3 24/2/2 13/4/4
f 1/5/3 13/6/4 12/7/5
f 12/7/5 13/6/4 14/8/6
f 12/7/5 14/8/6 11/9/7
f 11/9/7 14/8/6 15/10/8
f 11/9/7 15/10/8 10/11/9
f 10/11/9 15/10/8 16/12/10
f 10/11/9 16/12/10 9/13/11
f 9/13/11 16/12/10 17/14/12
f 9/13/11 17/14/12 8/15/13
f 8/15/13 17/14/12 18/16/14
f 8/15/13 18/16/14 7/17/15
f 7/17/15 18/16/14 19/18/16
f 7/17/15 19/18/16 6/19/17
f 6/19/17 19/18/16 20/20/18
f 6/19/17 20/20/18 5/21/19
f 5/21/19 20/20/18 21/22/20
f 5/21/19 21/22/20 4/23/21
f 4/23/21 21/22/20 22/24/22
f 4/23/21 22/24/22 3/25/23
f 3/25/23 22/24/22 23/26/24
f 3/25/23 23/26/24 2/1/1
f 2/1/1 23/26/24 24/2/2
f 12/27/25 8/28/26 1/29/27
f 1/29/27 8/28/26 7/30/28
f 1/29/27 7/30/28 2/31/29
f 2/31/29 7/30/28 6/32/30
f 2/31/29 6/32/30 3/33/31
f 3/33/31 6/32/30 5/34/32
f 3/33/31 5/34/32 4/35/33
f 8/28/26 12/27/25 9/36/34
f 9/36/34 12/27/25 11/37/35
f 9/36/34 11/37/35 10/38/36
f 25/39/37 26/40/38 28/41/39
f 28/41/39 26/40/38 27/42/40
f 29/43/41 25/44/42 30/45/43
f 30/45/43 25/44/42 28/46/44
f 31/47/45 29/48/46 32/49/47
f 32/49/47 29/48/46 30/50/48
f 26/51/49 31/52/50 27/53/51
f 27/53/51 31/52/50 32/54/52
f 24/55/53 27/56/54 13/57/55
f 13/57/55 27/56/54 32/58/56
f 13/57/55 32/58/56 14/59/57
f 14/59/57 32/58/56 15/60/58
f 15/60/58 32/58/56 16/61/59
f 16/61/59 32/58/56 30/62/60
f 16/61/59 30/62/60 17/63/61
f 17/63/61 30/62/60 18/64/62
f 18/64/62 30/62/60 19/65/63
f 19/65/63 30/62/60 28/66/64
f 19/65/63 28/66/64 20/67/65
f 20/67/65 28/66/64 21/68/66
f 21/68/66 28/66/64 22/69/67
f 22/69/67 28/66/64 27/56/54
f 22/69/67 27/56/54 23/70/68
f 23/70/68 27/56/54 24/55/53
f 26/71/69 25/72/70 31/73/71
f 31/73/71 25/72/70 29/74/72
# 32 vertices
# 74 texture params
# 72 normals
# 60 facets

# 1 groups
